<svg width="111" height="111" viewBox="0 0 111 111" fill="none" xmlns="http://www.w3.org/2000/svg">
<path d="M110.618 55.7465C110.618 86.1958 85.7927 110.993 55.3088 110.993C24.8249 110.993 0 86.1958 0 55.7465C0 25.2971 24.8249 0.5 55.3088 0.5C85.7927 0.5 110.618 25.2971 110.618 55.7465Z" fill="#015091"/>
<path d="M88.5355 59.0355C90.4882 57.0829 90.4882 53.9171 88.5355 51.9645L56.7157 20.1447C54.7631 18.192 51.5973 18.192 49.6447 20.1447C47.692 22.0973 47.692 25.2631 49.6447 27.2157L77.9289 55.5L49.6447 83.7843C47.692 85.7369 47.692 88.9027 49.6447 90.8553C51.5973 92.808 54.7631 92.808 56.7157 90.8553L88.5355 59.0355ZM25 60.5L85 60.5L85 50.5L25 50.5L25 60.5Z" fill="white"/>
</svg>
