<svg width="295" height="70" viewBox="0 0 295 70" fill="none" xmlns="http://www.w3.org/2000/svg">
<path d="M42.8922 3.14513C47.5058 4.41632 52.1913 5.62832 56.0735 8.42988C60 11.2635 63.0712 15.1212 65.3857 19.3778C67.7019 23.6374 69.2128 28.3203 69.521 33.1606C69.8274 37.9728 68.9991 42.8149 67.1618 47.2719C65.3619 51.6382 62.1939 55.1806 59.0079 58.664C55.7848 62.1878 52.649 65.9972 48.2791 67.917C43.8858 69.8471 38.9271 69.9328 34.1419 69.5885C29.4605 69.2516 24.8816 68.0716 20.7023 65.9325C16.5734 63.8191 13.1613 60.663 10.0237 57.2439C6.81737 53.7501 3.75835 50.0665 2.07244 45.6318C0.335321 41.0625 -0.317077 36.121 0.142898 31.2535C0.609863 26.312 2.0323 21.4168 4.75281 17.2677C7.44597 13.1603 11.61 10.3869 15.6517 7.60087C19.6962 4.81295 23.7222 1.64399 28.568 0.851361C33.3928 0.0621533 38.1785 1.84639 42.8922 3.14513Z" fill="url(#paint0_linear_63_616)"/>
<path d="M118.031 3.14513C122.644 4.41632 127.33 5.62832 131.212 8.42988C135.139 11.2635 138.21 15.1212 140.524 19.3778C142.841 23.6374 144.351 28.3203 144.66 33.1606C144.966 37.9728 144.138 42.8149 142.3 47.2719C140.501 51.6382 137.333 55.1806 134.147 58.664C130.923 62.1878 127.788 65.9972 123.418 67.917C119.024 69.8471 114.066 69.9328 109.281 69.5885C104.599 69.2516 100.02 68.0716 95.841 65.9325C91.7121 63.8191 88.3 60.663 85.1623 57.2439C81.956 53.7501 78.897 50.0665 77.2111 45.6318C75.474 41.0625 74.8216 36.121 75.2816 31.2535C75.7485 26.312 77.171 21.4168 79.8915 17.2677C82.5846 13.1603 86.7487 10.3869 90.7904 7.60087C94.8349 4.81295 98.8609 1.64399 103.707 0.851361C108.532 0.0621533 113.317 1.84639 118.031 3.14513Z" fill="#004F90"/>
<path d="M192.727 4.75192C192.884 4.79536 193.042 4.83862 193.199 4.88178C197.713 6.12381 201.905 7.27717 205.375 9.78138C209.055 12.4369 211.975 16.0833 214.199 20.1739C216.417 24.2536 217.844 28.7029 218.135 33.2665C218.425 37.819 217.641 42.408 215.898 46.6367C214.227 50.6908 211.265 54.0297 208.055 57.5391C207.715 57.9112 207.38 58.2814 207.047 58.6481C204.124 61.8745 201.449 64.8256 197.886 66.3911C193.88 68.1509 189.263 68.2661 184.539 67.9261C180.057 67.6036 175.699 66.4757 171.739 64.4488C167.87 62.4687 164.617 59.4815 161.529 56.117C158.337 52.6387 155.472 49.1544 153.908 45.0396C152.263 40.7124 151.643 36.0275 152.08 31.4103C152.527 26.6715 153.885 22.053 156.424 18.1816C158.827 14.5169 162.524 11.9706 166.498 9.23307C166.623 9.14662 166.749 9.05998 166.875 8.97311C167.364 8.63612 167.845 8.29965 168.321 7.967C171.94 5.43776 175.242 3.12959 179.114 2.49617C181.243 2.148 183.419 2.35811 185.701 2.84523C187.301 3.18672 188.861 3.63985 190.477 4.10974C191.212 4.32331 191.959 4.54034 192.727 4.75192Z" fill="#E3F2FF" stroke="#004F90" stroke-width="3.33333"/>
<path d="M267.939 4.48416C268.103 4.52938 268.267 4.57445 268.431 4.61942C272.929 5.85671 277.165 7.02198 280.677 9.55616C284.398 12.2414 287.342 15.9229 289.582 20.0413C291.816 24.1509 293.257 28.6391 293.551 33.2489C293.844 37.8446 293.053 42.4758 291.294 46.7426C289.601 50.8488 286.605 54.2215 283.399 57.7266C283.059 58.0987 282.723 58.4697 282.389 58.8379C279.473 62.057 276.758 65.0546 273.137 66.6454C269.066 68.4336 264.392 68.5439 259.658 68.2032C255.142 67.8783 250.748 66.7417 246.751 64.6962C242.839 62.6938 239.559 59.6785 236.463 56.3049C233.269 52.824 230.371 49.3064 228.787 45.1383C227.126 40.7708 226.501 36.0431 226.942 31.3842C227.393 26.6116 228.761 21.947 231.33 18.0293C233.764 14.3181 237.501 11.7439 241.459 9.01762C241.591 8.92674 241.724 8.8357 241.856 8.74443C242.343 8.40868 242.824 8.07249 243.3 7.73938C246.911 5.21452 250.269 2.86643 254.208 2.22207C256.384 1.86616 258.598 2.08271 260.898 2.5736C262.508 2.91723 264.083 3.3749 265.705 3.84624C266.437 4.05917 267.18 4.2749 267.939 4.48416Z" fill="white" stroke="#004F90" stroke-width="2.77778"/>
<defs>
<linearGradient id="paint0_linear_63_616" x1="0" y1="34.7799" x2="69.5833" y2="34.7799" gradientUnits="userSpaceOnUse">
<stop stop-color="#004F90"/>
<stop offset="0.513021" stop-color="#0083E6"/>
<stop offset="1" stop-color="#004F90"/>
<stop offset="1" stop-color="#004F90"/>
</linearGradient>
</defs>
</svg>
