<svg width="379" height="377" viewBox="0 0 379 377" fill="none" xmlns="http://www.w3.org/2000/svg">
<path d="M112.204 7.00899C124.273 10.3344 136.531 13.5049 146.686 20.8337C156.958 28.2463 164.992 38.3379 171.047 49.473C177.106 60.6159 181.058 72.8663 181.864 85.5284C182.666 98.1168 180.499 110.784 175.693 122.443C170.984 133.865 162.697 143.132 154.363 152.244C145.931 161.463 137.728 171.428 126.297 176.45C114.804 181.499 101.832 181.723 89.314 180.822C77.0676 179.941 65.0893 176.854 54.1565 171.258C43.3554 165.73 34.4296 157.474 26.2215 148.53C17.834 139.39 9.83171 129.754 5.42143 118.153C0.877187 106.199 -0.829463 93.2728 0.373816 80.5395C1.59538 67.6127 5.31643 54.8069 12.4332 43.9531C19.4784 33.2084 30.3715 25.9532 40.9444 18.6651C51.5245 11.3719 62.0565 3.08205 74.7328 1.00857C87.3545 -1.05597 99.8736 3.61153 112.204 7.00899Z" fill="url(#paint0_linear_63_442)"/>
<path d="M308.765 7.00899C320.834 10.3344 333.091 13.5049 343.247 20.8337C353.518 28.2463 361.552 38.3379 367.607 49.473C373.666 60.6159 377.619 72.8663 378.425 85.5284C379.226 98.1168 377.06 110.784 372.253 122.443C367.545 133.865 359.257 143.132 350.923 152.244C342.492 161.463 334.288 171.428 322.857 176.45C311.364 181.499 298.393 181.723 285.875 180.822C273.628 179.941 261.65 176.854 250.717 171.258C239.916 165.73 230.99 157.474 222.782 148.53C214.395 139.39 206.392 129.754 201.982 118.153C197.438 106.199 195.731 93.2728 196.934 80.5395C198.156 67.6127 201.877 54.8069 208.994 43.9531C216.039 33.2084 226.932 25.9532 237.505 18.6651C248.085 11.3719 258.617 3.08205 271.293 1.00857C283.915 -1.05597 296.434 3.61153 308.765 7.00899Z" fill="#004F90"/>
<path d="M111.046 206.479C111.459 206.593 111.87 206.706 112.28 206.819C124.09 210.068 135.057 213.085 144.135 219.636C153.761 226.583 161.398 236.121 167.216 246.822C173.02 257.495 176.753 269.134 177.513 281.072C178.271 292.981 176.222 304.986 171.662 316.048C167.29 326.653 159.542 335.388 151.145 344.568C150.255 345.542 149.377 346.51 148.508 347.469C140.86 355.91 133.864 363.629 124.543 367.725C114.064 372.328 101.986 372.63 89.627 371.74C77.902 370.897 66.5023 367.946 56.143 362.644C46.0224 357.464 37.5108 349.65 29.4338 340.848C21.0836 331.749 13.589 322.634 9.4968 311.87C5.19343 300.55 3.57302 288.295 4.71442 276.216C5.88588 263.82 9.43871 251.738 16.0792 241.61C22.3651 232.024 32.0355 225.363 42.4318 218.201C42.7601 217.975 43.0892 217.749 43.4189 217.521C44.6977 216.64 45.957 215.76 47.202 214.889C56.6679 208.273 65.3064 202.235 75.4366 200.578C81.0048 199.667 86.6964 200.217 92.6677 201.491C96.8538 202.384 100.932 203.57 105.162 204.799C107.084 205.358 109.037 205.925 111.046 206.479Z" fill="#E3F2FF" stroke="#004F90" stroke-width="8.71988"/>
<path d="M307.8 205.778C308.229 205.897 308.658 206.015 309.085 206.132C320.852 209.369 331.934 212.417 341.121 219.047C350.854 226.071 358.557 235.702 364.415 246.475C370.261 257.226 374.031 268.967 374.799 281.026C375.564 293.048 373.496 305.163 368.894 316.325C364.466 327.066 356.629 335.889 348.242 345.059C347.352 346.032 346.473 347.003 345.6 347.966C337.972 356.387 330.868 364.228 321.396 368.39C310.748 373.068 298.521 373.356 286.135 372.465C274.323 371.615 262.827 368.642 252.372 363.291C242.138 358.053 233.558 350.165 225.459 341.34C217.103 332.234 209.523 323.032 205.378 312.128C201.035 300.703 199.4 288.336 200.552 276.148C201.731 263.663 205.312 251.46 212.032 241.212C218.398 231.504 228.175 224.77 238.53 217.638C238.875 217.4 239.221 217.162 239.567 216.923C240.841 216.045 242.099 215.165 243.345 214.294C252.79 207.689 261.575 201.546 271.88 199.861C277.572 198.93 283.362 199.496 289.38 200.78C293.592 201.679 297.712 202.877 301.955 204.11C303.871 204.667 305.813 205.231 307.8 205.778Z" fill="white" stroke="#004F90" stroke-width="7.26657"/>
<defs>
<linearGradient id="paint0_linear_63_442" x1="0" y1="89.7645" x2="182.027" y2="89.7645" gradientUnits="userSpaceOnUse">
<stop stop-color="#004F90"/>
<stop offset="0.513021" stop-color="#0083E6"/>
<stop offset="1" stop-color="#004F90"/>
<stop offset="1" stop-color="#004F90"/>
</linearGradient>
</defs>
</svg>
