<svg width="386" height="48" viewBox="0 0 386 48" fill="none" xmlns="http://www.w3.org/2000/svg">
<path d="M24.816 47.9395C32.944 47.9395 39.536 44.9315 44.272 41.0275V20.8675H23.664V29.9555H32.496V35.3955C30.64 36.6115 28.336 37.2515 25.328 37.2515C18.224 37.2515 13.168 32.0675 13.168 24.8355C13.168 17.8595 18.16 12.4195 24.624 12.4195C29.04 12.4195 32.24 13.9555 35.44 16.6435L42.736 7.87545C38 3.77945 32.432 1.34745 24.56 1.34745C10.672 1.34745 0.432 11.5875 0.432 24.6435C0.432 38.3395 10.864 47.9395 24.816 47.9395ZM68.1155 47.8755C79.2515 47.8755 87.3155 39.6195 87.3155 29.7635C87.3155 19.7795 79.3155 11.6515 68.2435 11.6515C57.1075 11.6515 49.0435 19.9075 49.0435 29.7635C49.0435 39.7475 57.0435 47.8755 68.1155 47.8755ZM68.2435 37.5715C63.9555 37.5715 60.8835 33.9875 60.8835 29.7635C60.8835 25.4755 63.6995 21.9555 68.1155 21.9555C72.4035 21.9555 75.4755 25.5395 75.4755 29.7635C75.4755 34.0515 72.6595 37.5715 68.2435 37.5715ZM106.212 47.7475C109.604 47.7475 112.484 46.9795 114.66 45.7635V36.2275C113.188 36.9315 111.652 37.3795 110.052 37.3795C107.812 37.3795 106.724 36.3555 106.724 33.9235V22.2115H114.788V12.4195H106.724V3.65145H94.5635V12.4195H90.4675V22.2115H94.5635V36.2915C94.5635 44.5475 98.9155 47.7475 106.212 47.7475ZM120.014 47.0435H132.174V28.2915C132.174 24.5155 134.35 22.4675 137.294 22.4675C140.174 22.4675 142.158 24.5155 142.158 28.2915V47.0435H154.318V24.3875C154.318 16.5155 149.902 11.6515 142.542 11.6515C137.614 11.6515 134.414 14.2755 132.174 17.1555V0.323456H120.014V47.0435ZM170.497 47.8115C175.041 47.8115 178.305 46.0835 180.673 43.4595V47.0435H192.705V27.1395C192.705 22.2755 191.617 18.6915 188.993 16.1315C186.241 13.3795 182.017 11.9075 175.809 11.9075C169.857 11.9075 165.697 12.9955 161.793 14.5955L164.289 23.1715C167.361 21.9555 170.177 21.2515 173.825 21.2515C178.497 21.2515 180.737 23.2995 180.737 26.8835V27.4595C178.753 26.7555 175.617 26.1155 172.417 26.1155C164.289 26.1155 158.849 29.8275 158.849 36.9955C158.849 44.0355 163.905 47.8115 170.497 47.8115ZM174.849 40.1955C172.353 40.1955 170.561 38.7875 170.561 36.4195C170.561 33.7315 172.609 32.0035 176.128 32.0035C177.921 32.0035 179.649 32.3875 180.865 32.8995V34.4995C180.865 37.9555 178.369 40.1955 174.849 40.1955ZM198.889 47.0435H211.049V28.2275C211.049 24.4515 213.097 22.4675 215.977 22.4675C218.857 22.4675 220.713 24.4515 220.713 28.2275V47.0435H232.873V28.2275C232.873 24.4515 234.985 22.4675 237.865 22.4675C240.745 22.4675 242.601 24.4515 242.601 28.2275V47.0435H254.761V24.3235C254.761 16.2595 250.281 11.6515 242.921 11.6515C237.865 11.6515 234.345 13.8275 231.337 17.2835C229.481 13.6995 225.961 11.6515 221.353 11.6515C216.489 11.6515 213.289 14.2755 211.049 17.1555V12.4195H198.889V47.0435ZM279.468 47.0435H291.884V34.2435H298.028C309.164 34.2435 317.292 28.6755 317.292 18.1155C317.292 8.06746 309.996 2.24345 298.668 2.24345H279.468V47.0435ZM291.884 24.5155V12.6755H297.708C302.188 12.6755 304.876 14.7235 304.876 18.5635C304.876 22.2115 302.188 24.5155 297.772 24.5155H291.884ZM321.827 47.0435H333.987V36.2915C333.987 28.2915 337.571 24.6435 343.907 24.6435H344.931V11.8435C339.171 11.5875 335.971 14.6595 333.987 19.3955V12.4195H321.827V47.0435ZM366.241 47.8755C377.377 47.8755 385.441 39.6195 385.441 29.7635C385.441 19.7795 377.441 11.6515 366.369 11.6515C355.233 11.6515 347.169 19.9075 347.169 29.7635C347.169 39.7475 355.169 47.8755 366.241 47.8755ZM366.369 37.5715C362.081 37.5715 359.009 33.9875 359.009 29.7635C359.009 25.4755 361.825 21.9555 366.241 21.9555C370.529 21.9555 373.601 25.5395 373.601 29.7635C373.601 34.0515 370.785 37.5715 366.369 37.5715Z" fill="black"/>
</svg>
