<svg width="373" height="48" viewBox="0 0 373 48" fill="none" xmlns="http://www.w3.org/2000/svg">
<path d="M23.2 47.8115C16.3307 47.8115 10.848 45.5928 6.752 41.1555C2.69867 36.7181 0.672 31.2141 0.672 24.6435C0.672 18.3715 2.74133 12.9528 6.88 8.38745C11.0187 3.77946 16.3307 1.47546 22.816 1.47546C26.272 1.47546 29.2587 1.96612 31.776 2.94746C34.336 3.92879 36.8107 5.40079 39.2 7.36346L37.024 9.85946C32.928 6.27546 28.128 4.48346 22.624 4.48346C17.2907 4.48346 12.8747 6.44612 9.376 10.3715C5.87733 14.2968 4.128 19.0541 4.128 24.6435C4.128 30.5741 5.856 35.4381 9.312 39.2355C12.768 42.9901 17.44 44.8675 23.328 44.8675C26.016 44.8675 28.6187 44.3981 31.136 43.4595C33.696 42.4781 35.8507 41.2408 37.6 39.7475V26.8835H22.624V23.8115H40.8V41.0915C38.5813 43.0541 35.936 44.6755 32.864 45.9555C29.8347 47.1928 26.6133 47.8115 23.2 47.8115ZM78.5715 42.7555C75.3715 46.1261 71.3822 47.8115 66.6035 47.8115C61.8248 47.8115 57.8355 46.1475 54.6355 42.8195C51.4782 39.4488 49.8995 35.4168 49.8995 30.7235C49.8995 26.0728 51.4995 22.0621 54.6995 18.6915C57.9422 15.3208 61.9528 13.6355 66.7315 13.6355C71.5102 13.6355 75.4782 15.3208 78.6355 18.6915C81.8355 22.0195 83.4355 26.0301 83.4355 30.7235C83.4355 35.3741 81.8142 39.3848 78.5715 42.7555ZM66.7315 44.8675C70.3582 44.8675 73.4728 43.4808 76.0755 40.7075C78.7208 37.9341 80.0435 34.6061 80.0435 30.7235C80.0435 26.7981 78.7208 23.4701 76.0755 20.7395C73.4728 17.9661 70.3155 16.5795 66.6035 16.5795C62.9342 16.5795 59.7982 17.9661 57.1955 20.7395C54.5928 23.4701 53.2915 26.7981 53.2915 30.7235C53.2915 34.6488 54.5928 37.9981 57.1955 40.7715C59.7982 43.5021 62.9768 44.8675 66.7315 44.8675ZM103.957 47.6195C101.269 47.6195 99.0717 46.8728 97.365 45.3795C95.6583 43.8435 94.805 41.6035 94.805 38.6595V17.2835H90.069V14.4035H94.805V3.97145H97.941V14.4035H109.397V17.2835H97.941V38.3395C97.941 42.5635 100.117 44.6755 104.469 44.6755C105.962 44.6755 107.562 44.2915 109.269 43.5235V46.4675C107.605 47.2355 105.834 47.6195 103.957 47.6195ZM118.702 47.0435V0.323456H121.838V20.4835C124.441 15.9181 128.366 13.6355 133.614 13.6355C137.667 13.6355 140.846 14.8941 143.15 17.4115C145.497 19.8861 146.67 23.1075 146.67 27.0755V47.0435H143.534V27.6515C143.534 24.2381 142.617 21.5288 140.782 19.5235C138.947 17.5181 136.409 16.5155 133.166 16.5155C129.923 16.5155 127.214 17.6248 125.038 19.8435C122.905 22.0195 121.838 24.7928 121.838 28.1635V47.0435H118.702ZM167.872 47.8115C164.544 47.8115 161.6 46.8941 159.04 45.0595C156.523 43.2248 155.264 40.6861 155.264 37.4435C155.264 34.1155 156.565 31.5128 159.168 29.6355C161.771 27.7581 165.227 26.8195 169.536 26.8195C173.205 26.8195 176.811 27.2888 180.352 28.2275V26.8195C180.352 23.5768 179.413 21.1021 177.536 19.3955C175.659 17.6888 173.013 16.8355 169.6 16.8355C166.187 16.8355 162.773 17.7101 159.36 19.4595L158.208 16.7075C162.261 14.8301 166.123 13.8915 169.792 13.8915C174.272 13.8915 177.707 15.0861 180.096 17.4755C182.315 19.6941 183.424 22.7661 183.424 26.6915V47.0435H180.352V41.6035C177.408 45.7421 173.248 47.8115 167.872 47.8115ZM168.064 44.8675C171.477 44.8675 174.379 43.9288 176.768 42.0515C179.2 40.1315 180.416 37.7208 180.416 34.8195V31.1075C176.576 30.1261 172.885 29.6355 169.344 29.6355C165.931 29.6355 163.285 30.3395 161.408 31.7475C159.531 33.1128 158.592 34.9901 158.592 37.3795C158.592 39.6408 159.509 41.4541 161.344 42.8195C163.221 44.1848 165.461 44.8675 168.064 44.8675ZM194.702 47.0435V14.4035H197.838V20.2275C199.118 18.1795 200.59 16.5795 202.254 15.4275C203.918 14.2328 206.073 13.6355 208.718 13.6355C213.838 13.6355 217.507 15.9821 219.726 20.6755C222.457 15.9821 226.382 13.6355 231.502 13.6355C235.342 13.6355 238.393 14.8728 240.654 17.3475C242.915 19.8221 244.046 23.1288 244.046 27.2675V47.0435H240.91V27.6515C240.91 24.1528 240.057 21.4221 238.35 19.4595C236.643 17.4968 234.275 16.5155 231.246 16.5155C228.387 16.5155 225.955 17.5608 223.95 19.6515C221.945 21.7421 220.942 24.5368 220.942 28.0355V47.0435H217.806V27.4595C217.806 24.0888 216.931 21.4221 215.182 19.4595C213.475 17.4968 211.171 16.5155 208.27 16.5155C205.369 16.5155 202.894 17.6461 200.846 19.9075C198.841 22.1688 197.838 24.9421 197.838 28.2275V47.0435H194.702ZM275.469 47.0435V2.24345H291.725C296.717 2.24345 300.727 3.48079 303.757 5.95546C306.829 8.38745 308.365 11.7581 308.365 16.0675C308.365 20.5901 306.679 24.1101 303.309 26.6275C299.981 29.1021 295.842 30.3395 290.893 30.3395H278.797V47.0435H275.469ZM278.797 27.2675H291.085C295.266 27.2675 298.637 26.2648 301.197 24.2595C303.757 22.2115 305.037 19.5021 305.037 16.1315C305.037 12.6755 303.799 10.0088 301.325 8.13145C298.893 6.25412 295.607 5.31546 291.469 5.31546H278.797V27.2675ZM317.515 47.0435V14.4035H320.651V23.6835C321.973 20.6968 323.915 18.2861 326.475 16.4515C329.077 14.6168 331.957 13.7635 335.115 13.8915V17.3475H334.795C330.827 17.3475 327.477 18.7981 324.747 21.6995C322.016 24.6008 320.651 28.5901 320.651 33.6675V47.0435H317.515ZM367.947 42.7555C364.747 46.1261 360.757 47.8115 355.979 47.8115C351.2 47.8115 347.211 46.1475 344.01 42.8195C340.853 39.4488 339.275 35.4168 339.275 30.7235C339.275 26.0728 340.875 22.0621 344.075 18.6915C347.317 15.3208 351.328 13.6355 356.107 13.6355C360.885 13.6355 364.853 15.3208 368.011 18.6915C371.211 22.0195 372.811 26.0301 372.811 30.7235C372.811 35.3741 371.189 39.3848 367.947 42.7555ZM356.107 44.8675C359.733 44.8675 362.848 43.4808 365.451 40.7075C368.096 37.9341 369.419 34.6061 369.419 30.7235C369.419 26.7981 368.096 23.4701 365.451 20.7395C362.848 17.9661 359.691 16.5795 355.979 16.5795C352.309 16.5795 349.173 17.9661 346.571 20.7395C343.968 23.4701 342.667 26.7981 342.667 30.7235C342.667 34.6488 343.968 37.9981 346.571 40.7715C349.173 43.5021 352.352 44.8675 356.107 44.8675Z" fill="black"/>
</svg>
