<svg width="320" height="361" viewBox="0 0 320 361" fill="none" xmlns="http://www.w3.org/2000/svg">
<path d="M-64.1731 43.62C-84.0343 73.6082 -65.7009 107.294 -44.7706 123.685C-23.8403 140.077 -5.73972 135.022 22.739 147.649C51.6016 160.446 46.3557 199.883 133.082 194.644C230.573 188.754 224.878 112.588 219.529 69.9823C214.181 27.3767 152.375 -8.35645 101.89 17.0236C67.3146 34.4057 42.1727 23.174 11.7848 16.701C-18.6031 10.228 -45.8692 15.9832 -64.1731 43.62Z" fill="#004F90"/>
<path d="M370.074 110.159C355.528 80.7763 320.583 79.8078 298.081 88.8026C275.579 97.7975 271.278 114.379 248.289 131.048C224.989 147.941 196.304 125.753 160.734 196.513C120.75 276.056 183.395 306.433 219.427 321.72C255.459 337.008 311.918 304.646 315.022 253.233C317.148 218.022 337.51 203.346 356.523 182.355C375.535 161.365 383.48 137.238 370.074 110.159Z" fill="#004F90"/>
<path d="M18.9961 210.881C14.6837 187.329 -9.65737 179.631 -27.2629 181.428C-44.8684 183.224 -51.2186 194.003 -70.7074 201.089C-90.459 208.271 -106.144 186.931 -145.329 229.47C-189.378 277.289 -151.494 311.198 -129.265 329.168C-107.037 347.138 -60.8964 335.756 -48.3915 300.281C-39.8272 275.985 -22.5828 269.77 -5.01811 258.85C12.5466 247.931 22.9703 232.587 18.9961 210.881Z" fill="#004F90"/>
</svg>
