<svg width="1028" height="170" viewBox="0 0 1028 170" fill="none" xmlns="http://www.w3.org/2000/svg">
<g clip-path="url(#clip0_63_489)">
<path fill-rule="evenodd" clip-rule="evenodd" d="M128.654 85.7961C128.654 77.7023 127.623 70.4249 125.567 63.9431C123.516 57.4717 120.558 51.9753 116.702 47.4877C112.849 42.9897 108.125 39.5499 102.549 37.1475C96.9653 34.7529 90.6101 33.5543 83.491 33.5543C76.295 33.5543 69.8835 34.7529 64.2744 37.1475C58.6524 39.5499 53.9226 42.9897 50.0644 47.4877C46.2036 51.9753 43.2529 57.4717 41.1892 63.9431C39.1383 70.4249 38.1078 77.7023 38.1078 85.7961C38.1078 93.9601 39.1383 101.282 41.1892 107.753C43.2529 114.237 46.2036 119.723 50.0644 124.221C53.9226 128.712 58.6524 132.138 64.2744 134.494C69.8835 136.86 76.295 138.035 83.491 138.035C90.6101 138.035 96.9653 136.86 102.549 134.494C108.125 132.138 112.849 128.712 116.702 124.221C120.558 119.723 123.516 114.237 125.567 107.753C127.623 101.282 128.654 93.9601 128.654 85.7961ZM166.769 85.7961C166.769 97.6339 164.762 108.642 160.76 118.829C156.756 129.013 151.129 137.871 143.856 145.396C136.588 152.918 127.831 158.817 117.584 163.086C107.338 167.355 95.9783 169.493 83.491 169.493C71.0063 169.493 59.6291 167.355 49.3466 163.086C39.0666 158.817 30.276 152.918 22.9672 145.396C15.6507 137.871 10.0057 129.013 5.9988 118.829C1.9996 108.642 0 97.6339 0 85.7961C0 73.9661 1.9996 62.9551 5.9988 52.7605C10.0057 42.5763 15.6507 33.7467 22.9672 26.2509C30.276 18.7603 39.0666 12.8817 49.3466 8.61247C59.6291 4.34327 71.0063 2.21387 83.491 2.21387C95.9783 2.21387 107.338 4.36407 117.584 8.66967C127.831 12.9857 136.588 18.8825 143.856 26.3679C151.129 33.8559 156.756 42.6959 160.76 52.8827C164.762 63.0669 166.769 74.0389 166.769 85.7961Z" fill="#586667"/>
<mask id="mask0_63_489" style="mask-type:alpha" maskUnits="userSpaceOnUse" x="0" y="2" width="1027" height="168">
<path d="M0 2.21289H1026.8V169.499H0" fill="white"/>
</mask>
<g mask="url(#mask0_63_489)">
<path fill-rule="evenodd" clip-rule="evenodd" d="M271.135 124.223C267.338 128.713 262.683 132.14 257.189 134.498C251.687 136.859 245.424 138.037 238.411 138.037C231.32 138.037 225.003 136.859 219.478 134.498C213.936 132.14 209.275 128.713 205.476 124.223C201.669 119.725 198.765 114.239 196.732 107.755C194.709 101.283 193.694 93.9591 193.694 85.7977C193.694 77.7039 194.709 70.4265 196.732 63.9447C198.765 57.4733 201.669 51.9769 205.476 47.4867C209.275 42.9913 213.936 39.5515 219.478 37.1491C225.003 34.7519 231.32 33.5533 238.411 33.5533C245.424 33.5533 251.687 34.7519 257.189 37.1491C262.683 39.5515 267.338 42.9913 271.135 47.4867C272.97 49.6551 274.601 52.0549 276.013 54.6939C278.741 59.7899 285.588 59.1815 285.588 59.1815H316.639C316.003 57.0573 315.344 54.9435 314.544 52.8843C310.601 42.6975 305.054 33.8575 297.888 26.3695C290.726 18.8815 282.097 12.9847 272.004 8.67129C261.906 4.36309 250.718 2.21289 238.411 2.21289C226.11 2.21289 214.9 4.34489 204.771 8.61409C194.642 12.8833 185.977 18.7593 178.776 26.2499C171.57 33.7483 166.007 42.5779 162.059 52.7621C158.119 62.9567 156.147 73.9651 156.147 85.7977C156.147 97.6329 158.119 108.644 162.059 118.831C166.007 129.015 171.57 137.873 178.776 145.397C185.977 152.919 194.642 158.819 204.771 163.085C214.9 167.357 226.11 169.494 238.411 169.494C250.718 169.494 261.906 167.357 272.004 163.085C282.097 158.819 290.726 152.919 297.888 145.397C305.054 137.873 310.601 129.015 314.544 118.831C315.344 116.769 316.005 114.645 316.641 112.518H285.588C282.738 112.518 278.164 112.801 275.316 117.681C274.185 119.618 273.224 121.75 271.135 124.223Z" fill="#586667"/>
</g>
<path fill-rule="evenodd" clip-rule="evenodd" d="M497.589 85.7961C497.589 77.7023 496.561 70.4249 494.507 63.9431C492.456 57.4717 489.498 51.9753 485.642 47.4877C481.787 42.9897 477.062 39.5499 471.489 37.1475C465.903 34.7529 459.548 33.5543 452.426 33.5543C445.233 33.5543 438.824 34.7529 433.214 37.1475C427.587 39.5499 422.858 42.9897 419.002 47.4877C415.141 51.9753 412.188 57.4717 410.127 63.9431C408.076 70.4249 407.043 77.7023 407.043 85.7961C407.043 93.9601 408.076 101.282 410.127 107.753C412.188 114.237 415.141 119.723 419.002 124.221C422.858 128.712 427.587 132.138 433.214 134.494C438.824 136.86 445.233 138.035 452.426 138.035C459.548 138.035 465.903 136.86 471.489 134.494C477.062 132.138 481.787 128.712 485.642 124.221C489.498 119.723 492.456 114.237 494.507 107.753C496.561 101.282 497.589 93.9601 497.589 85.7961ZM535.704 85.7961C535.704 97.6339 533.692 108.642 529.703 118.829C525.691 129.013 520.061 137.871 512.799 145.396C505.523 152.918 496.771 158.817 486.519 163.086C476.275 167.355 464.916 169.493 452.426 169.493C439.941 169.493 428.567 167.355 418.287 163.086C408.002 158.817 399.208 152.918 391.907 145.396C384.586 137.871 378.938 129.013 374.936 118.829C370.937 108.642 368.938 97.6339 368.938 85.7961C368.938 73.9661 370.937 62.9551 374.936 52.7605C378.938 42.5763 384.586 33.7467 391.907 26.2509C399.208 18.7603 408.002 12.8817 418.287 8.61247C428.567 4.34327 439.941 2.21387 452.426 2.21387C464.916 2.21387 476.275 4.36407 486.519 8.66967C496.771 12.9857 505.523 18.8825 512.799 26.3679C520.061 33.8559 525.691 42.6959 529.703 52.8827C533.692 63.0669 535.704 74.0389 535.704 85.7961Z" fill="#586667"/>
<path fill-rule="evenodd" clip-rule="evenodd" d="M577.342 98.2663V139.052H603.693C608.643 139.052 612.694 138.41 615.834 137.141C618.97 135.862 621.428 134.214 623.197 132.196C624.971 130.173 626.186 127.891 626.853 125.335C627.514 122.797 627.847 120.21 627.847 117.595C627.847 114.594 627.463 111.898 626.689 109.501C625.914 107.106 624.586 105.086 622.705 103.432C620.818 101.787 618.318 100.513 615.217 99.6105C612.115 98.7161 608.205 98.2663 603.48 98.2663H577.342ZM577.342 72.8747H596.836C600.968 72.8747 604.695 72.5783 608.026 71.9829C611.343 71.3797 614.171 70.3371 616.498 68.8369C618.826 67.3367 620.59 65.2775 621.818 62.6541C623.035 60.0307 623.638 56.7391 623.638 52.7637C623.638 48.8793 623.164 45.6345 622.202 43.0449C621.241 40.4683 619.762 38.3909 617.767 36.8101C615.778 35.2371 613.243 34.1217 610.184 33.4457C607.113 32.7697 603.48 32.4317 599.274 32.4317H577.342V72.8747ZM539.903 167.697V4.00586H599.274C610.425 4.00586 619.916 5.05886 627.74 7.15186C635.566 9.25266 641.957 12.2063 646.902 16.0309C651.85 19.8477 655.449 24.4939 657.705 29.9617C659.956 35.4295 661.087 41.5369 661.087 48.2761C661.087 51.9421 660.564 55.4781 659.533 58.8893C658.495 62.3005 656.875 65.4985 654.655 68.4989C652.44 71.4889 649.604 74.2007 646.128 76.6447C642.66 79.0757 638.484 81.1895 633.605 82.9887C644.249 85.6147 652.107 89.8657 657.211 95.7443C662.302 101.625 664.848 109.163 664.848 118.377C664.848 125.335 663.517 131.819 660.859 137.807C658.2 143.805 654.304 149.023 649.176 153.488C644.041 157.941 637.709 161.425 630.175 163.929C622.643 166.443 614.04 167.697 604.362 167.697H539.903Z" fill="#586667"/>
<path fill-rule="evenodd" clip-rule="evenodd" d="M774.166 4.00439V33.2154H707.92V71.4146H758.653V99.5024H707.92V138.482H774.166V167.695H670.261V4.00439H774.166Z" fill="#586667"/>
<path fill-rule="evenodd" clip-rule="evenodd" d="M818.779 80.9686H833.846C838.934 80.9686 843.277 80.3108 846.859 79.003C850.442 77.6874 853.38 75.8752 855.67 73.5508C857.959 71.2316 859.618 68.5146 860.653 65.4102C861.679 62.298 862.207 58.944 862.207 55.3508C862.207 48.1644 859.894 42.5406 855.28 38.5028C850.665 34.452 843.518 32.4318 833.846 32.4318H818.779V80.9686ZM818.779 107.143V167.697H781.341V4.00342H833.846C845.508 4.00342 855.459 5.23062 863.699 7.66162C871.93 10.0952 878.657 13.4856 883.856 17.8276C889.065 22.1748 892.844 27.2994 895.218 33.217C897.574 39.132 898.756 45.5748 898.756 52.5454C898.756 57.865 898.053 62.8752 896.646 67.5916C895.254 72.3106 893.16 76.6812 890.396 80.6852C887.625 84.6892 884.225 88.2642 880.206 91.4128C876.176 94.5614 871.541 97.1406 866.296 99.1634C868.811 100.443 871.156 102.016 873.333 103.88C875.507 105.754 877.414 108.04 879.047 110.736L913.379 167.697H879.488C873.202 167.697 868.703 165.3 865.97 160.51L839.163 112.985C837.981 110.882 836.591 109.392 835.005 108.484C833.423 107.593 831.182 107.143 828.311 107.143H818.779Z" fill="#586667"/>
<path fill-rule="evenodd" clip-rule="evenodd" d="M326.422 4.00439V69.6362H285.295C281.572 69.6362 278.558 72.569 278.558 76.1804V95.5192C278.558 99.1358 281.572 102.066 285.295 102.066H326.422V167.695H363.861V4.00439H326.422Z" fill="#586667"/>
<path fill-rule="evenodd" clip-rule="evenodd" d="M1026.67 82.3475C1024.05 39.6087 977.524 2.62634 958.356 2.21814C939.181 1.80474 903.344 47.0681 901.893 93.0569C900.534 136.178 937.319 165.748 953.155 169.5C953.596 149.212 955.218 74.5163 955.49 65.8063C956.062 48.0067 956.936 20.3115 959.907 19.3911C961.612 18.8633 963.935 34.4321 963.65 43.6335C963.591 45.3885 963.57 51.0747 963.57 59.1451C966.778 55.8821 970.126 52.4943 972.161 50.4923C977.742 45.0063 980.211 45.6589 977.534 50.5521C975.886 53.5629 968.798 63.5729 963.586 70.827C963.614 85.4571 963.681 103.87 963.75 121.028C971.11 112.409 980.121 102.076 984.853 97.4821C994.782 87.8543 995.838 89.0686 991.15 99.1748C988.271 105.368 974.191 121.888 963.801 134.917C963.865 150.143 963.917 162.942 963.927 169.052C991.801 162.919 1029.23 124.309 1026.67 82.3475Z" fill="#DB6A26"/>
</g>
<defs>
<clipPath id="clip0_63_489">
<rect width="1028" height="169" fill="white" transform="translate(0 0.5)"/>
</clipPath>
</defs>
</svg>
