<svg width="42" height="201" viewBox="0 0 42 201" fill="none" xmlns="http://www.w3.org/2000/svg">
<path d="M124.516 7.70286C137.909 11.3827 151.511 14.8913 162.781 23.0013C174.18 31.2041 183.095 42.3715 189.814 54.6936C196.538 67.0244 200.924 80.5807 201.819 94.5927C202.708 108.523 200.304 122.54 194.97 135.443C189.745 148.082 180.548 158.337 171.3 168.42C161.943 178.622 152.84 189.649 140.154 195.206C127.4 200.794 113.005 201.042 99.1138 200.045C85.5237 199.07 72.2311 195.654 60.0987 189.462C48.1124 183.344 38.2073 174.207 29.0986 164.31C19.7908 154.196 10.9105 143.532 6.01628 130.695C0.973434 117.467 -0.920473 103.163 0.414832 89.0719C1.77043 74.767 5.89977 60.5961 13.7974 48.5853C21.6156 36.6952 33.7039 28.6666 45.4369 20.6015C57.1779 12.5309 68.8655 3.3573 82.9327 1.06278C96.9392 -1.22184 110.832 3.94323 124.516 7.70286Z" fill="#015091"/>
</svg>
