<svg width="1920" height="1818" viewBox="0 0 1920 1818" fill="none" xmlns="http://www.w3.org/2000/svg">
<path d="M1930 598.493C2177.81 701.048 2129.43 727.565 2120.26 757.8L2084.99 1041.08L-256.999 1025.5C-261.31 954.377 -343.37 563.776 -118.999 490C176.001 393 577.639 526.559 884.501 598.493C1191.36 670.427 1414.5 385.153 1930 598.493Z" fill="white"/>
<path d="M1969 1365.65C2227.1 1291.45 2110.24 1231.99 2093.81 1169.31L1990.5 782.654L-167.499 453.153C-156.014 594.781 -452.816 1290.68 186.501 1426.65C809.501 1559.15 760.857 1326.29 1067 1251.15C1604 1119.35 1646.38 1458.41 1969 1365.65Z" fill="white"/>
<ellipse cx="855.61" cy="1407.26" rx="31.5226" ry="45.7077" transform="rotate(-135 855.61 1407.26)" fill="white"/>
</svg>
