<svg width="377" height="1013" viewBox="0 0 377 1013" fill="none" xmlns="http://www.w3.org/2000/svg">
<path d="M628.743 36.9465C696.373 55.5667 765.056 73.3199 821.963 114.357C879.52 155.863 924.54 212.37 958.469 274.72C992.421 337.113 1014.57 405.708 1019.09 476.609C1023.58 547.096 1011.44 618.023 984.504 683.309C958.12 747.266 911.68 799.154 864.978 850.178C817.732 901.795 771.764 957.593 707.709 985.714C643.308 1013.99 570.621 1015.24 500.476 1010.2C431.852 1005.26 364.731 987.979 303.469 956.646C242.944 925.69 192.928 879.459 146.934 829.377C99.9337 778.2 55.0925 724.243 30.3792 659.285C4.91536 592.354 -4.64794 519.972 2.0947 448.674C8.93979 376.291 29.7909 304.586 69.67 243.812C109.148 183.648 170.188 143.023 229.434 102.214C288.72 61.3764 347.737 14.9579 418.769 3.34768C489.495 -8.21252 559.647 17.9227 628.743 36.9465Z" fill="#015091"/>
</svg>
