<svg width="1309" height="1498" viewBox="0 0 1309 1498" fill="none" xmlns="http://www.w3.org/2000/svg">
<path d="M68.3645 333.551C68.3645 364.001 43.5387 388.798 13.0548 388.798C-17.4291 388.798 -42.2539 364.001 -42.2539 333.551C-42.2539 303.102 -17.4291 278.305 13.0548 278.305C43.5387 278.305 68.3645 303.102 68.3645 333.551Z" fill="#004F90"/>
<path d="M1070.14 259.892C1088.57 242.57 1079.99 215.038 1064.66 198.081C1036.55 167.085 990.368 162.709 954.773 173.102C918.448 183.495 883.4 211.391 870.074 250.593C865.694 263.538 859.67 297.27 875.369 302.557C886.504 306.204 903.114 293.988 914.796 289.612C931.407 283.412 949.114 280.313 966.82 279.766C998.034 278.672 1045.86 282.501 1070.14 259.892Z" fill="white"/>
<path d="M73.4761 495.281C186.832 433.47 58.3256 153.227 366.633 18.6658C491.307 -35.669 829.002 29.6057 816.224 245.304C785.74 765.496 1103.36 435.658 1264.36 849.004C1439.41 1298.09 1069.59 1590.73 677.495 1470.57C371.561 1376.85 403.323 989.582 163.65 1026.05C-131.515 1070.9 -285.029 690.922 73.4761 495.281Z" fill="#004F90"/>
</svg>
