<svg width="1920" height="714" viewBox="0 0 1920 714" fill="none" xmlns="http://www.w3.org/2000/svg">
<rect width="1920" height="366" transform="translate(0 214.5)" fill="white"/>
<path d="M-15.996 196.407C-281.494 234.323 -228.126 303.327 -222.258 334.372L-217.603 619.801L2180.04 370.235C2191.96 299.985 2133.86 13.564 1897.97 1.71508C1639.14 -11.2859 1179.92 126.689 867.114 165.269C554.304 203.849 315.877 149.011 -15.996 196.407Z" fill="white"/>
<path d="M-43.7581 713.622C-311.914 709.201 -267.592 634.065 -265.652 602.531L-296.724 318.76L2113.31 266.567C2133.92 334.775 2112.09 626.213 1879.53 667.465C1624.36 712.727 1151.49 633.256 836.315 634.092C521.135 634.929 291.436 719.148 -43.7581 713.622Z" fill="white"/>
</svg>
