<svg width="320" height="673" viewBox="0 0 320 673" fill="none" xmlns="http://www.w3.org/2000/svg">
<path d="M523.158 195.585C614.874 233.542 596.968 243.356 593.575 254.546L580.523 359.391L-286.272 353.625C-287.867 327.301 -318.239 182.736 -235.197 155.431C-126.015 119.53 22.6357 168.962 136.208 195.585C249.781 222.209 332.367 116.626 523.158 195.585Z" fill="white"/>
<path d="M534.454 505.757C629.979 478.292 586.728 456.287 580.645 433.088L542.412 289.983L-256.286 168.032C-252.035 220.449 -361.885 478.01 -125.267 528.334C105.312 577.373 87.3079 491.189 200.615 463.379C399.364 414.599 415.048 540.088 534.454 505.757Z" fill="white"/>
<ellipse cx="115.857" cy="523.357" rx="10.8847" ry="15.7828" transform="rotate(-135 115.857 523.357)" fill="white"/>
</svg>
